#Comment line ignore any data following # character 
#Hierarchical Translation and Rotation (.htr) file 
[Header]	
#Header keywords are followed by a single value 
FileType HTR		#Single word string
DataType HTRS		#Translation followed by rotation and scale data
FileVersion 1		#integer
NumSegments 64		#integer
NumFrames 3		#integer
DataFrameRate 30		#integer, data frame rate in this file
EulerRotationOrder ZYX
CalibrationUnits mm
RotationUnits Degrees
GlobalAxisofGravity Y
BoneLengthAxis Y
ScaleFactor 1.00
[SegmentNames&Hierarchy]
#CHILD	PARENT
Pinger_Root GLOBAL
Pelvis Pinger_Root
L_Hip Pelvis
R_Hip Pelvis
Rear_Leg01 Pelvis
Spine1 Pelvis
L_Leg01 L_Hip
L_Leg02 L_Leg01
L_Leg03 L_Leg02
L_Foot L_Leg03
L_Toe1_01 L_Foot
L_Toe2_01 L_Foot
L_Toe3_01 L_Foot
planeAlignerLeft L_Foot
L_Toe1_02 L_Toe1_01
L_Toe1_03 L_Toe1_02
L_Toe2_02 L_Toe2_01
L_Toe2_03 L_Toe2_02
L_Toe3_02 L_Toe3_01
L_Toe3_03 L_Toe3_02
planeLockWeightLeft planeAlignerLeft
R_Leg01 R_Hip
R_Leg02 R_Leg01
R_Leg03 R_Leg02
R_Foot R_Leg03
planeAlignerRight R_Foot
R_Toe1_01 R_Foot
R_Toe2_01 R_Foot
R_Toe3_01 R_Foot
planeLockWeightRight planeAlignerRight
R_Toe1_02 R_Toe1_01
R_Toe1_03 R_Toe1_02
R_Toe2_02 R_Toe2_01
R_Toe2_03 R_Toe2_02
R_Toe3_02 R_Toe3_01
R_Toe3_03 R_Toe3_02
Rear_Leg02 Rear_Leg01
Rear_Leg03 Rear_Leg02
Rear_Leg04 Rear_Leg03
Rear_Foot Rear_Leg04
planeAlignerCenter Rear_Foot
Rear_Toe1_01 Rear_Foot
Rear_Toe2_01 Rear_Foot
Rear_Toe3_01 Rear_Foot
planeLockWeightCenter planeAlignerCenter
Rear_Toe1_02 Rear_Toe1_01
Rear_Toe1_03 Rear_Toe1_02
Rear_Toe2_02 Rear_Toe2_01
Rear_Toe2_03 Rear_Toe2_02
Rear_Toe3_02 Rear_Toe3_01
Rear_Toe3_03 Rear_Toe3_02
Back_Bone Spine1
Head Spine1
Motor_Bone Back_Bone
Ping_Mechanism Back_Bone
BN_LookIK Head
bottomMouth Head
L_Mouth01 Head
L_mouthFront Head
mouthGun Head
R_Mouth01 Head
R_mouthFront Head
TopMouth Head
weapon_bone Head
[BasePosition]
#SegmentName Tx, Ty, Tz, Rx, Ry, Rz, BoneLength
Pinger_Root 0.000000 0.000000 0.000000 -90.000000 0.000000 0.000000 10.000000 
Pelvis 0.000000 0.000000 0.000000 0.000000 0.000000 0.000000 10.000000 
L_Hip 0.000000 0.000000 0.000000 0.000000 0.000000 0.000000 10.000000 
R_Hip 0.000000 0.000000 0.000000 0.000000 0.000000 0.000000 10.000000 
Rear_Leg01 0.000000 0.000000 0.000000 0.000000 0.000000 0.000000 10.000000 
Spine1 0.000000 0.000000 0.000000 0.000000 0.000000 0.000000 10.000000 
L_Leg01 0.000000 0.000000 0.000000 0.000000 0.000000 0.000000 10.000000 
L_Leg02 0.000000 0.000000 0.000000 0.000000 0.000000 0.000000 10.000000 
L_Leg03 0.000000 0.000000 0.000000 0.000000 0.000000 0.000000 10.000000 
L_Foot 0.000000 0.000000 0.000000 0.000000 0.000000 0.000000 10.000000 
L_Toe1_01 0.000000 0.000000 0.000000 0.000000 0.000000 0.000000 10.000000 
L_Toe2_01 0.000000 0.000000 0.000000 0.000000 0.000000 0.000000 10.000000 
L_Toe3_01 0.000000 0.000000 0.000000 0.000000 0.000000 0.000000 10.000000 
planeAlignerLeft 0.000000 0.000000 0.000000 0.000000 0.000000 0.000000 10.000000 
L_Toe1_02 0.000000 0.000000 0.000000 0.000000 0.000000 0.000000 10.000000 
L_Toe1_03 0.000000 0.000000 0.000000 0.000000 0.000000 0.000000 10.000000 
L_Toe2_02 0.000000 0.000000 0.000000 0.000000 0.000000 0.000000 10.000000 
L_Toe2_03 0.000000 0.000000 0.000000 0.000000 0.000000 0.000000 10.000000 
L_Toe3_02 0.000000 0.000000 0.000000 0.000000 0.000000 0.000000 10.000000 
L_Toe3_03 0.000000 0.000000 0.000000 0.000000 0.000000 0.000000 10.000000 
planeLockWeightLeft 0.000000 0.000000 0.000000 0.000000 0.000000 0.000000 10.000000 
R_Leg01 0.000000 0.000000 0.000000 0.000000 0.000000 0.000000 10.000000 
R_Leg02 0.000000 0.000000 0.000000 0.000000 0.000000 0.000000 10.000000 
R_Leg03 0.000000 0.000000 0.000000 0.000000 0.000000 0.000000 10.000000 
R_Foot 0.000000 0.000000 0.000000 0.000000 0.000000 0.000000 10.000000 
planeAlignerRight 0.000000 0.000000 0.000000 0.000000 0.000000 0.000000 10.000000 
R_Toe1_01 0.000000 0.000000 0.000000 0.000000 0.000000 0.000000 10.000000 
R_Toe2_01 0.000000 0.000000 0.000000 0.000000 0.000000 0.000000 10.000000 
R_Toe3_01 0.000000 0.000000 0.000000 0.000000 0.000000 0.000000 10.000000 
planeLockWeightRight 0.000000 0.000000 0.000000 0.000000 0.000000 0.000000 10.000000 
R_Toe1_02 0.000000 0.000000 0.000000 0.000000 0.000000 0.000000 10.000000 
R_Toe1_03 0.000000 0.000000 0.000000 0.000000 0.000000 0.000000 10.000000 
R_Toe2_02 0.000000 0.000000 0.000000 0.000000 0.000000 0.000000 10.000000 
R_Toe2_03 0.000000 0.000000 0.000000 0.000000 0.000000 0.000000 10.000000 
R_Toe3_02 0.000000 0.000000 0.000000 0.000000 0.000000 0.000000 10.000000 
R_Toe3_03 0.000000 0.000000 0.000000 0.000000 0.000000 0.000000 10.000000 
Rear_Leg02 0.000000 0.000000 0.000000 0.000000 0.000000 0.000000 10.000000 
Rear_Leg03 0.000000 0.000000 0.000000 0.000000 0.000000 0.000000 10.000000 
Rear_Leg04 0.000000 0.000000 0.000000 0.000000 0.000000 0.000000 10.000000 
Rear_Foot 0.000000 0.000000 0.000000 0.000000 0.000000 0.000000 10.000000 
planeAlignerCenter 0.000000 0.000000 0.000000 0.000000 0.000000 0.000000 10.000000 
Rear_Toe1_01 0.000000 0.000000 0.000000 0.000000 0.000000 0.000000 10.000000 
Rear_Toe2_01 0.000000 0.000000 0.000000 0.000000 0.000000 0.000000 10.000000 
Rear_Toe3_01 0.000000 0.000000 0.000000 0.000000 0.000000 0.000000 10.000000 
planeLockWeightCenter 0.000000 0.000000 0.000000 0.000000 0.000000 0.000000 10.000000 
Rear_Toe1_02 0.000000 0.000000 0.000000 0.000000 0.000000 0.000000 10.000000 
Rear_Toe1_03 0.000000 0.000000 0.000000 0.000000 0.000000 0.000000 10.000000 
Rear_Toe2_02 0.000000 0.000000 0.000000 0.000000 0.000000 0.000000 10.000000 
Rear_Toe2_03 0.000000 0.000000 0.000000 0.000000 0.000000 0.000000 10.000000 
Rear_Toe3_02 0.000000 0.000000 0.000000 0.000000 0.000000 0.000000 10.000000 
Rear_Toe3_03 0.000000 0.000000 0.000000 0.000000 0.000000 0.000000 10.000000 
Back_Bone 0.000000 0.000000 0.000000 0.000000 0.000000 0.000000 10.000000 
Head 0.000000 0.000000 0.000000 0.000000 0.000000 0.000000 10.000000 
Motor_Bone 0.000000 0.000000 0.000000 0.000000 0.000000 0.000000 10.000000 
Ping_Mechanism 0.000000 0.000000 0.000000 0.000000 0.000000 0.000000 10.000000 
BN_LookIK 0.000000 0.000000 0.000000 0.000000 0.000000 0.000000 10.000000 
bottomMouth 0.000000 0.000000 0.000000 0.000000 0.000000 0.000000 10.000000 
L_Mouth01 0.000000 0.000000 0.000000 0.000000 0.000000 0.000000 10.000000 
L_mouthFront 0.000000 0.000000 0.000000 0.000000 0.000000 0.000000 10.000000 
mouthGun 0.000000 0.000000 0.000000 0.000000 0.000000 0.000000 10.000000 
R_Mouth01 0.000000 0.000000 0.000000 0.000000 0.000000 0.000000 10.000000 
R_mouthFront 0.000000 0.000000 0.000000 0.000000 0.000000 0.000000 10.000000 
TopMouth 0.000000 0.000000 0.000000 0.000000 0.000000 0.000000 10.000000 
weapon_bone 0.000000 0.000000 0.000000 0.000000 0.000000 0.000000 10.000000 
#Beginning of Data. Separated by tabs
#Fr	Tx	Ty	Tz	Rx	Ry	Rz	SF
[Pinger_Root]
1 0.000000 0.000000 0.000000 -0.000075 -0.000000 -0.000020 0.000000
2 0.000000 0.000000 0.000000 -0.000075 -0.000000 -0.000020 0.000000
3 0.000000 0.000000 0.000000 -0.000075 -0.000000 -0.000020 0.000000
[Pelvis]
1 72.289291 917.371460 4435.513184 -102.458321 -85.927444 94.853279 4529.963867
2 82.124908 918.956909 4435.137695 -103.039398 -86.067314 95.876564 4530.085449
3 108.569679 924.098145 4434.671875 -104.890175 -86.443123 98.919624 4531.231445
[L_Hip]
1 5.766392 125.831482 872.656799 160.158691 -45.484905 122.312202 881.701050
2 5.766392 125.831482 872.656799 160.057358 -46.480122 121.856003 881.701050
3 5.766392 125.831482 872.656799 159.845688 -49.205784 120.602348 881.701050
[R_Hip]
1 5.765438 125.836372 -872.654907 38.087841 49.812687 125.703735 881.699829
2 5.765438 125.836372 -872.654907 38.038586 50.731987 125.544250 881.699829
3 5.765438 125.836372 -872.654907 37.821976 53.244736 125.077011 881.699829
[Rear_Leg01]
1 -192.298416 -925.602966 -0.001907 169.626740 1.797854 -159.703110 945.367432
2 -192.298416 -925.602966 -0.001907 169.974121 1.371125 -159.545715 945.367432
3 -192.298416 -925.602966 -0.001907 170.923630 0.231203 -159.101532 945.367432
[Spine1]
1 290.604584 5.007505 0.000477 7.303622 -0.399038 19.326200 290.647736
2 290.604584 5.007505 0.000477 6.921149 -0.255616 19.362247 290.647736
3 290.604584 5.007505 0.000477 5.872231 0.129425 19.459707 290.647736
[L_Leg01]
1 761.932007 -0.002384 -0.069261 22.929714 -15.605063 -8.983875 761.932068
2 761.932007 -0.002384 -0.069261 23.800222 -16.773954 -10.035937 761.932068
3 761.932007 -0.002384 -0.069261 26.293646 -19.867483 -13.067437 761.932068
[L_Leg02]
1 1441.140503 -0.000954 -0.000715 2.599186 -0.184957 -128.958679 1441.140503
2 1441.140503 -0.000954 -0.000715 2.498467 -0.189096 -128.344940 1441.140503
3 1441.140503 -0.000954 -0.000715 2.223210 -0.196174 -126.565498 1441.140503
[L_Leg03]
1 1686.963989 -0.000715 -0.000954 -0.029944 0.014721 118.144737 1686.963989
2 1686.963989 -0.000715 -0.000954 -0.027425 0.010404 117.856239 1686.963989
3 1686.963989 -0.000715 -0.000954 -0.027497 0.010213 117.057739 1686.963989
[L_Foot]
1 3041.570068 -30.715107 11.297464 1.913094 13.084586 55.442665 3041.746094
2 3041.570068 -30.715107 11.297464 1.545375 13.133321 54.890488 3041.746094
3 3041.570068 -30.715107 11.297464 0.532831 13.253663 53.346458 3041.746094
[L_Toe1_01]
1 -188.216690 -224.732346 -21.137953 93.719955 -6.925230 -171.986328 293.899567
2 -188.216690 -224.732346 -21.137953 93.617653 -6.826715 -171.882782 293.899567
3 -188.216690 -224.732346 -21.137953 93.352325 -6.560026 -171.611328 293.899567
[L_Toe2_01]
1 200.746536 -219.926590 148.838394 -90.022209 -26.397211 -52.627831 332.896027
2 200.746536 -219.926590 148.838394 -89.658653 -26.078558 -52.423489 332.896027
3 200.746536 -219.926590 148.838394 -88.673912 -25.192005 -51.863556 332.896027
[L_Toe3_01]
1 188.832520 -219.859131 -191.078659 -99.750153 13.808904 -67.572594 347.140900
2 188.832520 -219.859131 -191.078659 -99.917816 13.855972 -66.901695 347.140900
3 188.832520 -219.859131 -191.078659 -100.359695 13.996660 -65.094376 347.140900
[planeAlignerLeft]
1 0.812531 -811.448792 -0.314951 0.000000 -90.000000 -90.001900 811.449280
2 0.812531 -811.448792 -0.314951 0.000000 -90.000000 -90.001900 811.449280
3 0.812531 -811.448792 -0.314951 0.000000 -90.000000 -90.001900 811.449280
[L_Toe1_02]
1 413.761139 0.000477 0.000000 0.001384 -26.007854 0.001384 413.761139
2 413.761139 0.000477 0.000000 0.001384 -25.957106 0.001384 413.761139
3 413.761139 0.000477 0.000000 0.001385 -25.906347 0.001385 413.761139
[L_Toe1_03]
1 464.317322 0.000358 -0.000089 0.003720 53.215233 0.003720 464.317322
2 464.317322 0.000358 -0.000089 0.003831 54.324245 0.003831 464.317322
3 464.317322 0.000358 -0.000089 0.004154 57.177715 0.004154 464.317322
[L_Toe2_02]
1 342.235809 -0.000477 0.000238 0.001188 -72.432678 0.001188 342.235809
2 342.235809 -0.000477 0.000238 0.001187 -72.641205 0.001187 342.235809
3 342.235809 -0.000477 0.000238 0.001186 -73.200790 0.001186 342.235809
[L_Toe2_03]
1 420.210846 -0.000715 0.000000 0.029695 85.469704 0.029695 420.210846
2 420.210846 -0.000715 0.000000 0.033940 86.036613 0.033940 420.210846
3 420.210846 -0.000715 0.000000 -0.028608 87.547607 -0.025110 420.210846
[L_Toe3_02]
1 329.270111 0.000954 0.000000 0.001178 -80.545074 0.001178 329.270111
2 329.270111 0.000954 0.000000 0.001178 -80.684700 0.001178 329.270111
3 329.270111 0.000954 0.000000 0.001177 -80.824142 0.001177 329.270111
[L_Toe3_03]
1 439.137451 -0.001907 0.000954 -179.996094 78.343895 -179.992584 439.137451
2 439.137451 -0.001907 0.000954 -179.996231 78.044395 -179.992722 439.137451
3 439.137451 -0.001907 0.000954 -179.996582 77.263550 -179.993073 439.137451
[planeLockWeightLeft]
1 -0.000954 0.000238 -0.000305 -0.011826 -0.004376 0.005620 0.001029
2 -0.000954 0.000238 -0.000305 -0.011826 -0.004376 0.005620 0.001029
3 -0.000954 0.000238 -0.000305 -0.011826 -0.004376 0.005620 0.001029
[R_Leg01]
1 761.455627 -0.001907 -0.000358 122.780426 -14.095340 32.002926 761.455688
2 761.455627 -0.001907 -0.000358 122.921608 -15.187170 32.342674 761.455688
3 761.455627 -0.001907 -0.000358 123.312042 -18.060698 33.300396 761.455688
[R_Leg02]
1 1441.140625 0.000000 -0.000238 -0.641023 -0.099561 -126.477005 1441.140625
2 1441.140625 0.000000 -0.000238 -0.629099 -0.094249 -127.516068 1441.140625
3 1441.140625 0.000000 -0.000238 -0.603288 -0.080841 -130.033737 1441.140625
[R_Leg03]
1 1686.963989 0.000954 0.001431 0.068112 -0.034850 128.432755 1686.963989
2 1686.963989 0.000954 0.001431 0.061682 -0.032217 127.816788 1686.963989
3 1686.963989 0.000954 0.001431 0.055535 -0.029073 125.997894 1686.963989
[R_Foot]
1 3041.560059 -30.531288 -11.204481 -0.546068 -22.994652 58.954247 3041.734131
2 3041.560059 -30.531288 -11.204481 -0.797951 -22.949163 59.737888 3041.734131
3 3041.560059 -30.531288 -11.204481 -1.468610 -22.849827 61.781113 3041.734131
[planeAlignerRight]
1 -0.635147 -812.270569 -0.364304 0.000000 -89.960434 -90.005180 812.270874
2 -0.635147 -812.270569 -0.364304 0.000000 -89.960434 -90.005180 812.270874
3 -0.635147 -812.270569 -0.364304 0.000000 -89.960434 -90.005180 812.270874
[R_Toe1_01]
1 -188.383347 -224.864899 21.052242 76.763626 -0.388297 -172.897552 294.101532
2 -188.383347 -224.864899 21.052242 76.648956 -0.432059 -173.000549 294.101532
3 -188.383347 -224.864899 21.052242 76.346230 -0.540565 -173.294708 294.101532
[R_Toe2_01]
1 200.637817 -220.002121 -148.787384 -91.708725 32.951626 -59.068760 332.857574
2 200.637817 -220.002121 -148.787384 -91.925316 32.878498 -58.974873 332.857574
3 200.637817 -220.002121 -148.787384 -92.503181 32.686958 -58.702156 332.857574
[R_Toe3_01]
1 188.606735 -220.092957 191.126343 -73.240967 -8.449762 -73.615791 347.192566
2 188.606735 -220.092957 191.126343 -73.017494 -8.418671 -73.509972 347.192566
3 188.606735 -220.092957 191.126343 -72.430908 -8.339494 -73.211830 347.192566
[planeLockWeightRight]
1 -0.000477 0.000000 0.000000 -0.011823 -0.004379 -0.000027 0.000477
2 -0.000477 0.000000 0.000000 -0.011823 -0.004379 -0.000027 0.000477
3 -0.000477 0.000000 0.000000 -0.011823 -0.004379 -0.000027 0.000477
[R_Toe1_02]
1 413.762085 0.000477 -0.000119 0.001394 -24.634167 0.001394 413.762085
2 413.762085 0.000477 -0.000119 0.001395 -24.557253 0.001395 413.762085
3 413.762085 0.000477 -0.000119 0.001396 -24.480331 0.001396 413.762085
[R_Toe1_03]
1 464.317810 0.000000 0.001088 0.006680 69.762085 0.006680 464.317810
2 464.317810 0.000000 0.001088 0.006718 69.876640 0.006718 464.317810
3 464.317810 0.000000 0.001088 0.006827 70.202789 0.006827 464.317810
[R_Toe2_02]
1 342.234741 -0.000954 0.000238 0.001197 -67.274704 0.001197 342.234741
2 342.234741 -0.000954 0.000238 0.001197 -67.417427 0.001197 342.234741
3 342.234741 -0.000954 0.000238 0.001196 -67.560089 0.001196 342.234741
[R_Toe2_03]
1 420.210846 0.000715 -0.000268 0.008290 73.723274 0.008290 420.210846
2 420.210846 0.000715 -0.000268 0.008363 73.865540 0.008363 420.210846
3 420.210846 0.000715 -0.000268 0.008582 74.280632 0.008582 420.210846
[R_Toe3_02]
1 329.270355 -0.000477 -0.000954 0.001184 -74.661629 0.001184 329.270355
2 329.270355 -0.000477 -0.000954 0.001184 -74.773689 0.001184 329.270355
3 329.270355 -0.000477 -0.000954 0.001184 -74.885674 0.001184 329.270355
[R_Toe3_03]
1 439.137939 0.000238 0.001431 -0.012087 83.625053 -0.008585 439.137939
2 439.137939 0.000238 0.001431 -0.012352 83.784317 -0.008850 439.137939
3 439.137939 0.000238 0.001431 -0.013157 84.223648 -0.009656 439.137939
[Rear_Leg02]
1 1162.777710 -0.029802 0.005960 1.175768 -5.922865 -123.543571 1162.777710
2 1162.777710 -0.029802 0.005960 1.260338 -6.691853 -123.048836 1162.777710
3 1162.777710 -0.029802 0.005960 1.431924 -8.778700 -121.738426 1162.777710
[Rear_Leg03]
1 607.192505 -0.013351 -0.073195 0.006474 -0.002115 64.391762 607.192505
2 607.192505 -0.013351 -0.073195 0.006477 -0.002104 64.204834 607.192505
3 607.192505 -0.013351 -0.073195 0.006488 -0.002071 63.617046 607.192505
[Rear_Leg04]
1 995.874512 -0.020504 -0.011921 -0.040541 -0.015098 58.420555 995.874573
2 995.874512 -0.020504 -0.011921 -0.040492 -0.015228 58.052567 995.874573
3 995.874512 -0.020504 -0.011921 -0.040364 -0.015564 57.098885 995.874573
[Rear_Foot]
1 3096.176270 -0.067472 -0.041425 -136.025452 82.784439 56.676910 3096.176270
2 3096.176270 -0.067472 -0.041425 -136.133759 81.854927 56.543900 3096.176270
3 3096.176270 -0.067472 -0.041425 -136.172455 79.350571 56.443306 3096.176270
[planeAlignerCenter]
1 0.350077 0.966311 -838.790894 0.000009 0.000003 -179.999985 838.791565
2 0.350077 0.966311 -838.790894 0.000009 0.000003 -179.999985 838.791565
3 0.350077 0.966311 -838.790894 0.000009 0.000003 -179.999985 838.791565
[Rear_Toe1_01]
1 0.653352 83.966492 -371.173737 0.293295 41.854195 90.407906 380.553192
2 0.653352 83.966492 -371.173737 0.290278 40.964417 90.410599 380.553192
3 0.653352 83.966492 -371.173737 0.287337 38.647232 90.421288 380.553192
[Rear_Toe2_01]
1 178.200760 -294.826019 -362.060547 -7.199159 34.366283 -66.267952 499.765686
2 178.200760 -294.826019 -362.060547 -7.157348 33.727554 -66.259117 499.765686
3 178.200760 -294.826019 -362.060547 -7.012805 32.085526 -66.218750 499.765686
[Rear_Toe3_01]
1 -153.359680 -308.780914 -362.060852 3.292768 33.477962 -112.542862 499.952881
2 -153.359680 -308.780914 -362.060852 3.357383 32.846306 -112.517471 499.952881
3 -153.359680 -308.780914 -362.060852 3.515271 31.257763 -112.450447 499.952881
[planeLockWeightCenter]
1 -0.000062 0.000238 0.000000 -0.011814 -0.004373 -0.000015 0.000246
2 -0.000062 0.000238 0.000000 -0.011814 -0.004373 -0.000015 0.000246
3 -0.000062 0.000238 0.000000 -0.011814 -0.004373 -0.000015 0.000246
[Rear_Toe1_02]
1 379.707825 0.194073 0.000477 -0.000243 -31.697306 0.006935 379.707855
2 379.707825 0.194073 0.000477 -0.000274 -32.119106 0.006952 379.707855
3 379.707825 0.194073 0.000477 -0.000327 -32.840275 0.006982 379.707855
[Rear_Toe1_03]
1 500.129700 0.165701 0.000119 -0.000092 52.012512 0.007304 500.129761
2 500.129700 0.165701 0.000119 0.000148 54.240891 0.007497 500.129761
3 500.129700 0.165701 0.000119 -0.003988 59.357635 -0.000362 500.129761
[Rear_Toe2_02]
1 340.494507 0.000238 -0.000954 0.001192 -69.908821 0.001192 340.494507
2 340.494507 0.000238 -0.000954 0.001191 -70.234985 0.001191 340.494507
3 340.494507 0.000238 -0.000954 0.001190 -70.942505 0.001190 340.494507
[Rear_Toe2_03]
1 433.103577 0.000000 0.000238 0.006720 69.882706 0.006720 433.103546
2 433.103577 0.000000 0.000238 0.006885 70.372124 0.006885 433.103546
3 433.103577 0.000000 0.000238 0.007303 71.502602 0.007303 433.103546
[Rear_Toe3_02]
1 340.494141 -0.000358 -0.000477 0.008309 -67.328171 -0.009481 340.494171
2 340.494141 -0.000358 -0.000477 0.008428 -67.631493 -0.009600 340.494171
3 340.494141 -0.000358 -0.000477 0.004950 -68.306839 -0.004341 340.494171
[Rear_Toe3_03]
1 433.103577 0.001431 -0.000238 -0.000981 66.035660 -0.004556 433.103546
2 433.103577 0.001431 -0.000238 -0.001035 66.490402 -0.004607 433.103546
3 433.103577 0.001431 -0.000238 0.002426 67.495659 0.000643 433.103546
[Back_Bone]
1 1312.175781 -701.934692 0.000954 2.790756 -1.457651 -85.682373 1488.125488
2 1312.175781 -701.934692 0.000954 2.660297 -1.376654 -85.641319 1488.125488
3 1312.175781 -701.934692 0.000954 2.299913 -1.158614 -85.528786 1488.125488
[Head]
1 1406.159424 809.709290 0.001431 -1.625258 2.695107 7.766798 1622.625488
2 1406.159424 809.709290 0.001431 -1.729066 2.565473 8.192743 1622.625488
3 1406.159424 809.709290 0.001431 -2.022028 2.201931 9.348560 1622.625488
[Motor_Bone]
1 1158.364380 -417.834747 0.000477 -2.148002 -0.847081 -106.833786 1231.419434
2 1158.364380 -417.834747 0.000477 -2.182057 -0.795205 -106.781250 1231.419434
3 1158.364380 -417.834747 0.000477 -2.216064 -0.743298 -106.728752 1231.419434
[Ping_Mechanism]
1 1233.861694 -441.868896 -1.382008 0.000103 -0.000053 82.120995 1310.597046
2 1232.616699 -441.298523 -1.913652 0.000103 -0.000053 82.120995 1309.233276
3 1231.371704 -440.728119 -2.445297 0.000103 -0.000053 82.120995 1307.869873
[BN_LookIK]
1 193.241119 1380.371704 -0.002861 0.000000 89.965736 -31.038179 1393.832153
2 193.241119 1380.371704 -0.002861 0.000000 89.965736 -31.038179 1393.832153
3 193.241119 1380.371704 -0.002861 0.000000 89.965736 -31.038179 1393.832153
[bottomMouth]
1 -435.092926 615.759399 -0.000954 -0.000022 0.000016 73.527184 753.966492
2 -435.092926 615.759399 -0.000954 -0.000022 0.000016 73.527184 753.966492
3 -435.092926 615.759399 -0.000954 -0.000022 0.000016 73.527184 753.966492
[L_Mouth01]
1 554.440979 7.658243 838.222046 150.204178 23.759130 109.605339 1005.027161
2 554.440979 7.658243 838.222046 150.204178 23.759130 109.605339 1005.027161
3 554.440979 7.658243 838.222046 150.204178 23.759130 109.605339 1005.027161
[L_mouthFront]
1 551.629089 934.514771 339.150421 0.000081 2.804060 79.119301 1136.941284
2 551.629089 934.514771 339.150421 0.000081 2.804060 79.119301 1136.941284
3 551.629089 934.514771 339.150421 0.000081 2.804060 79.119301 1136.941284
[mouthGun]
1 55.332661 1627.420898 0.000000 0.000023 0.000009 -11.038128 1628.361328
2 55.332661 1627.420898 0.000000 0.000023 0.000009 -11.038128 1628.361328
3 55.332661 1627.420898 0.000000 0.000023 0.000009 -11.038128 1628.361328
[R_Mouth01]
1 554.442383 7.659197 -838.223938 29.795891 -23.759109 109.605331 1005.029541
2 554.442383 7.659197 -838.223938 29.795891 -23.759109 109.605331 1005.029541
3 554.442383 7.659197 -838.223938 29.795891 -23.759109 109.605331 1005.029541
[R_mouthFront]
1 551.629089 934.514282 -339.151367 0.000029 -2.803930 79.119133 1136.941162
2 551.629089 934.514282 -339.151367 0.000029 -2.803930 79.119133 1136.941162
3 551.629089 934.514282 -339.151367 0.000029 -2.803930 79.119133 1136.941162
[TopMouth]
1 461.269867 -56.106091 -0.008583 -0.000059 -0.000268 92.025169 464.669525
2 461.269867 -56.106091 -0.008583 -0.000059 -0.000268 92.025169 464.669525
3 461.269867 -56.106091 -0.008583 -0.000059 -0.000268 92.025169 464.669525
[weapon_bone]
1 -987.239868 1448.372803 0.001431 0.000000 89.965736 -31.038221 1752.833740
2 -987.239868 1448.372803 0.001431 0.000000 89.965736 -31.038221 1752.833740
3 -987.239868 1448.372803 0.001431 0.000000 89.965736 -31.038221 1752.833740
